<mxfile host="65bd71144e">
    <diagram id="4VDlUGInjCP4mPWI1reK" name="Page-1">
        <mxGraphModel dx="1151" dy="231" grid="1" gridSize="10" guides="1" tooltips="1" connect="1" arrows="1" fold="1" page="1" pageScale="1" pageWidth="827" pageHeight="1169" math="0" shadow="0">
            <root>
                <mxCell id="0"/>
                <mxCell id="1" parent="0"/>
                <mxCell id="26" style="edgeStyle=none;html=1;exitX=0;exitY=0.25;exitDx=0;exitDy=0;entryX=0;entryY=0.5;entryDx=0;entryDy=0;endArrow=none;endFill=0;" edge="1" parent="1" source="2" target="23">
                    <mxGeometry relative="1" as="geometry"/>
                </mxCell>
                <mxCell id="107" style="edgeStyle=orthogonalEdgeStyle;html=1;exitX=0.25;exitY=0;exitDx=0;exitDy=0;entryX=0;entryY=0.5;entryDx=0;entryDy=0;rounded=0;endArrow=none;endFill=0;" edge="1" parent="1" source="2" target="10">
                    <mxGeometry relative="1" as="geometry"/>
                </mxCell>
                <mxCell id="2" value="Full Adder" style="rounded=0;whiteSpace=wrap;html=1;" vertex="1" parent="1">
                    <mxGeometry x="350" y="370" width="120" height="60" as="geometry"/>
                </mxCell>
                <mxCell id="29" style="edgeStyle=none;html=1;exitX=0;exitY=0.25;exitDx=0;exitDy=0;entryX=0;entryY=0.5;entryDx=0;entryDy=0;endArrow=none;endFill=0;" edge="1" parent="1" source="3" target="27">
                    <mxGeometry relative="1" as="geometry"/>
                </mxCell>
                <mxCell id="3" value="Full Adder" style="rounded=0;whiteSpace=wrap;html=1;" vertex="1" parent="1">
                    <mxGeometry x="354" y="502" width="120" height="60" as="geometry"/>
                </mxCell>
                <mxCell id="4" value="Full Adder" style="rounded=0;whiteSpace=wrap;html=1;" vertex="1" parent="1">
                    <mxGeometry x="350" y="632" width="120" height="60" as="geometry"/>
                </mxCell>
                <mxCell id="38" style="edgeStyle=none;html=1;exitX=0;exitY=0.25;exitDx=0;exitDy=0;entryX=0;entryY=0.5;entryDx=0;entryDy=0;endArrow=none;endFill=0;" edge="1" parent="1" source="5" target="35">
                    <mxGeometry relative="1" as="geometry"/>
                </mxCell>
                <mxCell id="5" value="Full Adder" style="rounded=0;whiteSpace=wrap;html=1;" vertex="1" parent="1">
                    <mxGeometry x="354" y="762" width="120" height="60" as="geometry"/>
                </mxCell>
                <mxCell id="25" style="edgeStyle=none;html=1;exitX=0;exitY=0.75;exitDx=0;exitDy=0;exitPerimeter=0;entryX=0;entryY=0.5;entryDx=0;entryDy=0;endArrow=none;endFill=0;" edge="1" parent="1" source="6" target="24">
                    <mxGeometry relative="1" as="geometry"/>
                </mxCell>
                <mxCell id="6" value="" style="verticalLabelPosition=bottom;shadow=0;dashed=0;align=center;html=1;verticalAlign=top;shape=mxgraph.electrical.logic_gates.logic_gate;operation=xor;" vertex="1" parent="1">
                    <mxGeometry x="250" y="390" width="100" height="60" as="geometry"/>
                </mxCell>
                <mxCell id="98" style="edgeStyle=none;html=1;exitX=0;exitY=0.25;exitDx=0;exitDy=0;exitPerimeter=0;entryX=1;entryY=0.5;entryDx=0;entryDy=0;endArrow=none;endFill=0;" edge="1" parent="1" source="7" target="17">
                    <mxGeometry relative="1" as="geometry"/>
                </mxCell>
                <mxCell id="7" value="" style="verticalLabelPosition=bottom;shadow=0;dashed=0;align=center;html=1;verticalAlign=top;shape=mxgraph.electrical.logic_gates.logic_gate;operation=xor;" vertex="1" parent="1">
                    <mxGeometry x="254" y="522" width="100" height="60" as="geometry"/>
                </mxCell>
                <mxCell id="34" style="edgeStyle=none;html=1;exitX=0;exitY=0.75;exitDx=0;exitDy=0;exitPerimeter=0;entryX=0;entryY=0.5;entryDx=0;entryDy=0;endArrow=none;endFill=0;" edge="1" parent="1" source="8" target="32">
                    <mxGeometry relative="1" as="geometry"/>
                </mxCell>
                <mxCell id="97" style="edgeStyle=none;html=1;exitX=0;exitY=0.25;exitDx=0;exitDy=0;exitPerimeter=0;entryX=1;entryY=0.5;entryDx=0;entryDy=0;endArrow=none;endFill=0;" edge="1" parent="1" source="8" target="94">
                    <mxGeometry relative="1" as="geometry"/>
                </mxCell>
                <mxCell id="8" value="" style="verticalLabelPosition=bottom;shadow=0;dashed=0;align=center;html=1;verticalAlign=top;shape=mxgraph.electrical.logic_gates.logic_gate;operation=xor;" vertex="1" parent="1">
                    <mxGeometry x="250" y="650" width="100" height="60" as="geometry"/>
                </mxCell>
                <mxCell id="37" style="edgeStyle=none;html=1;exitX=0;exitY=0.75;exitDx=0;exitDy=0;exitPerimeter=0;entryX=0;entryY=0.5;entryDx=0;entryDy=0;endArrow=none;endFill=0;" edge="1" parent="1" source="9" target="36">
                    <mxGeometry relative="1" as="geometry"/>
                </mxCell>
                <mxCell id="9" value="" style="verticalLabelPosition=bottom;shadow=0;dashed=0;align=center;html=1;verticalAlign=top;shape=mxgraph.electrical.logic_gates.logic_gate;operation=xor;" vertex="1" parent="1">
                    <mxGeometry x="254" y="782" width="100" height="60" as="geometry"/>
                </mxCell>
                <mxCell id="149" style="edgeStyle=none;html=1;exitX=1;exitY=0.12;exitDx=0;exitDy=0;endArrow=none;endFill=0;" edge="1" parent="1" source="10">
                    <mxGeometry relative="1" as="geometry">
                        <mxPoint x="129.8571428571429" y="950" as="targetPoint"/>
                    </mxGeometry>
                </mxCell>
                <mxCell id="10" value="" style="html=1;shape=mxgraph.electrical.electro-mechanical.twoWaySwitch;aspect=fixed;elSwitchState=2;rotation=-180;" vertex="1" parent="1">
                    <mxGeometry x="130" y="290" width="75" height="26" as="geometry"/>
                </mxCell>
                <mxCell id="11" value="M" style="text;html=1;align=center;verticalAlign=middle;resizable=0;points=[];autosize=1;strokeColor=none;fillColor=none;" vertex="1" parent="1">
                    <mxGeometry x="155" y="258" width="30" height="30" as="geometry"/>
                </mxCell>
                <mxCell id="91" style="edgeStyle=none;html=1;exitX=0.5;exitY=1;exitDx=0;exitDy=0;entryX=0.5;entryY=0;entryDx=0;entryDy=0;endArrow=none;endFill=0;" edge="1" parent="1" source="16" target="17">
                    <mxGeometry relative="1" as="geometry"/>
                </mxCell>
                <mxCell id="16" value="" style="shape=ellipse;fillColor=#000000;strokeColor=none;html=1;sketch=0;" vertex="1" parent="1">
                    <mxGeometry x="222" y="400" width="10" height="10" as="geometry"/>
                </mxCell>
                <mxCell id="92" style="edgeStyle=none;html=1;exitX=0.5;exitY=1;exitDx=0;exitDy=0;entryX=0.5;entryY=0;entryDx=0;entryDy=0;endArrow=none;endFill=0;" edge="1" parent="1" source="17" target="94">
                    <mxGeometry relative="1" as="geometry">
                        <mxPoint x="227" y="600" as="targetPoint"/>
                    </mxGeometry>
                </mxCell>
                <mxCell id="17" value="" style="shape=ellipse;fillColor=#000000;strokeColor=none;html=1;sketch=0;" vertex="1" parent="1">
                    <mxGeometry x="222" y="532" width="10" height="10" as="geometry"/>
                </mxCell>
                <mxCell id="19" value="B" style="text;html=1;align=center;verticalAlign=middle;resizable=0;points=[];autosize=1;strokeColor=none;fillColor=none;" vertex="1" parent="1">
                    <mxGeometry x="328" y="411" width="30" height="30" as="geometry"/>
                </mxCell>
                <mxCell id="20" value="B" style="text;html=1;align=center;verticalAlign=middle;resizable=0;points=[];autosize=1;strokeColor=none;fillColor=none;" vertex="1" parent="1">
                    <mxGeometry x="328" y="547" width="30" height="30" as="geometry"/>
                </mxCell>
                <mxCell id="21" value="B" style="text;html=1;align=center;verticalAlign=middle;resizable=0;points=[];autosize=1;strokeColor=none;fillColor=none;" vertex="1" parent="1">
                    <mxGeometry x="328" y="677" width="30" height="30" as="geometry"/>
                </mxCell>
                <mxCell id="22" value="B" style="text;html=1;align=center;verticalAlign=middle;resizable=0;points=[];autosize=1;strokeColor=none;fillColor=none;" vertex="1" parent="1">
                    <mxGeometry x="328" y="810" width="30" height="30" as="geometry"/>
                </mxCell>
                <mxCell id="141" style="edgeStyle=none;html=1;exitX=1;exitY=0.88;exitDx=0;exitDy=0;endArrow=none;endFill=0;" edge="1" parent="1" source="23">
                    <mxGeometry relative="1" as="geometry">
                        <mxPoint x="39.99999999999977" y="374.82608695652175" as="targetPoint"/>
                    </mxGeometry>
                </mxCell>
                <mxCell id="23" value="" style="html=1;shape=mxgraph.electrical.electro-mechanical.twoWaySwitch;aspect=fixed;elSwitchState=2;rotation=-180;" vertex="1" parent="1">
                    <mxGeometry x="130" y="372" width="75" height="26" as="geometry"/>
                </mxCell>
                <mxCell id="142" style="edgeStyle=none;html=1;exitX=1;exitY=0.88;exitDx=0;exitDy=0;endArrow=none;endFill=0;" edge="1" parent="1" source="24">
                    <mxGeometry relative="1" as="geometry">
                        <mxPoint x="39.99999999999977" y="425.2608695652175" as="targetPoint"/>
                    </mxGeometry>
                </mxCell>
                <mxCell id="24" value="" style="html=1;shape=mxgraph.electrical.electro-mechanical.twoWaySwitch;aspect=fixed;elSwitchState=2;rotation=-180;" vertex="1" parent="1">
                    <mxGeometry x="130" y="422" width="75" height="26" as="geometry"/>
                </mxCell>
                <mxCell id="143" style="edgeStyle=none;html=1;exitX=1;exitY=0.88;exitDx=0;exitDy=0;endArrow=none;endFill=0;" edge="1" parent="1" source="27">
                    <mxGeometry relative="1" as="geometry">
                        <mxPoint x="39.99999999999977" y="507" as="targetPoint"/>
                    </mxGeometry>
                </mxCell>
                <mxCell id="27" value="" style="html=1;shape=mxgraph.electrical.electro-mechanical.twoWaySwitch;aspect=fixed;elSwitchState=2;rotation=-180;" vertex="1" parent="1">
                    <mxGeometry x="130" y="504" width="75" height="26" as="geometry"/>
                </mxCell>
                <mxCell id="144" style="edgeStyle=none;html=1;exitX=1;exitY=0.88;exitDx=0;exitDy=0;endArrow=none;endFill=0;" edge="1" parent="1" source="28">
                    <mxGeometry relative="1" as="geometry">
                        <mxPoint x="39.99999999999977" y="557.4347826086957" as="targetPoint"/>
                    </mxGeometry>
                </mxCell>
                <mxCell id="28" value="" style="html=1;shape=mxgraph.electrical.electro-mechanical.twoWaySwitch;aspect=fixed;elSwitchState=2;rotation=-180;" vertex="1" parent="1">
                    <mxGeometry x="130" y="554" width="75" height="26" as="geometry"/>
                </mxCell>
                <mxCell id="30" style="edgeStyle=none;html=1;exitX=0;exitY=0.5;exitDx=0;exitDy=0;entryX=0;entryY=0.75;entryDx=0;entryDy=0;entryPerimeter=0;endArrow=none;endFill=0;" edge="1" parent="1" source="28" target="7">
                    <mxGeometry relative="1" as="geometry"/>
                </mxCell>
                <mxCell id="33" style="edgeStyle=none;html=1;exitX=0;exitY=0.5;exitDx=0;exitDy=0;entryX=0;entryY=0.25;entryDx=0;entryDy=0;endArrow=none;endFill=0;" edge="1" parent="1" source="31" target="4">
                    <mxGeometry relative="1" as="geometry"/>
                </mxCell>
                <mxCell id="145" style="edgeStyle=none;html=1;exitX=1;exitY=0.88;exitDx=0;exitDy=0;endArrow=none;endFill=0;" edge="1" parent="1" source="31">
                    <mxGeometry relative="1" as="geometry">
                        <mxPoint x="40" y="637" as="targetPoint"/>
                    </mxGeometry>
                </mxCell>
                <mxCell id="31" value="" style="html=1;shape=mxgraph.electrical.electro-mechanical.twoWaySwitch;aspect=fixed;elSwitchState=2;rotation=-180;" vertex="1" parent="1">
                    <mxGeometry x="130" y="634" width="75" height="26" as="geometry"/>
                </mxCell>
                <mxCell id="146" style="edgeStyle=none;html=1;exitX=1;exitY=0.88;exitDx=0;exitDy=0;endArrow=none;endFill=0;" edge="1" parent="1" source="32">
                    <mxGeometry relative="1" as="geometry">
                        <mxPoint x="40" y="684.9166666666667" as="targetPoint"/>
                    </mxGeometry>
                </mxCell>
                <mxCell id="32" value="" style="html=1;shape=mxgraph.electrical.electro-mechanical.twoWaySwitch;aspect=fixed;elSwitchState=2;rotation=-180;" vertex="1" parent="1">
                    <mxGeometry x="130" y="682" width="75" height="26" as="geometry"/>
                </mxCell>
                <mxCell id="147" style="edgeStyle=none;html=1;exitX=1;exitY=0.88;exitDx=0;exitDy=0;endArrow=none;endFill=0;" edge="1" parent="1" source="35">
                    <mxGeometry relative="1" as="geometry">
                        <mxPoint x="40" y="767" as="targetPoint"/>
                    </mxGeometry>
                </mxCell>
                <mxCell id="35" value="" style="html=1;shape=mxgraph.electrical.electro-mechanical.twoWaySwitch;aspect=fixed;elSwitchState=2;rotation=-180;" vertex="1" parent="1">
                    <mxGeometry x="130" y="764" width="75" height="26" as="geometry"/>
                </mxCell>
                <mxCell id="148" style="edgeStyle=none;html=1;exitX=1;exitY=0.88;exitDx=0;exitDy=0;endArrow=none;endFill=0;" edge="1" parent="1" source="36">
                    <mxGeometry relative="1" as="geometry">
                        <mxPoint x="40" y="817" as="targetPoint"/>
                    </mxGeometry>
                </mxCell>
                <mxCell id="36" value="" style="html=1;shape=mxgraph.electrical.electro-mechanical.twoWaySwitch;aspect=fixed;elSwitchState=2;rotation=-180;" vertex="1" parent="1">
                    <mxGeometry x="130" y="814" width="75" height="26" as="geometry"/>
                </mxCell>
                <mxCell id="39" value="A" style="text;html=1;align=center;verticalAlign=middle;resizable=0;points=[];autosize=1;strokeColor=none;fillColor=none;" vertex="1" parent="1">
                    <mxGeometry x="328" y="360" width="30" height="30" as="geometry"/>
                </mxCell>
                <mxCell id="40" value="A" style="text;html=1;align=center;verticalAlign=middle;resizable=0;points=[];autosize=1;strokeColor=none;fillColor=none;" vertex="1" parent="1">
                    <mxGeometry x="328" y="492" width="30" height="30" as="geometry"/>
                </mxCell>
                <mxCell id="41" value="A" style="text;html=1;align=center;verticalAlign=middle;resizable=0;points=[];autosize=1;strokeColor=none;fillColor=none;" vertex="1" parent="1">
                    <mxGeometry x="328" y="622" width="30" height="30" as="geometry"/>
                </mxCell>
                <mxCell id="42" value="A" style="text;html=1;align=center;verticalAlign=middle;resizable=0;points=[];autosize=1;strokeColor=none;fillColor=none;" vertex="1" parent="1">
                    <mxGeometry x="328" y="752" width="30" height="30" as="geometry"/>
                </mxCell>
                <mxCell id="83" style="edgeStyle=orthogonalEdgeStyle;html=1;exitX=0;exitY=0.57;exitDx=0;exitDy=0;exitPerimeter=0;entryX=1;entryY=0.25;entryDx=0;entryDy=0;rounded=0;endArrow=none;endFill=0;" edge="1" parent="1" source="43" target="2">
                    <mxGeometry relative="1" as="geometry"/>
                </mxCell>
                <mxCell id="43" value="" style="verticalLabelPosition=bottom;shadow=0;dashed=0;align=center;html=1;verticalAlign=top;shape=mxgraph.electrical.opto_electronics.led_2;pointerEvents=1;" vertex="1" parent="1">
                    <mxGeometry x="490" y="328" width="100" height="70" as="geometry"/>
                </mxCell>
                <mxCell id="126" style="edgeStyle=orthogonalEdgeStyle;html=1;exitX=1;exitY=0.5;exitDx=0;exitDy=0;exitPerimeter=0;entryX=0;entryY=0.5;entryDx=0;entryDy=0;rounded=0;curved=0;endArrow=none;endFill=0;" edge="1" parent="1" source="44" target="121">
                    <mxGeometry relative="1" as="geometry"/>
                </mxCell>
                <mxCell id="44" value="" style="pointerEvents=1;verticalLabelPosition=bottom;shadow=0;dashed=0;align=center;html=1;verticalAlign=top;shape=mxgraph.electrical.resistors.resistor_1;" vertex="1" parent="1">
                    <mxGeometry x="590" y="358" width="100" height="20" as="geometry"/>
                </mxCell>
                <mxCell id="84" style="edgeStyle=orthogonalEdgeStyle;html=1;exitX=0;exitY=0.57;exitDx=0;exitDy=0;exitPerimeter=0;entryX=1;entryY=0.75;entryDx=0;entryDy=0;rounded=0;endArrow=none;endFill=0;" edge="1" parent="1" source="45" target="2">
                    <mxGeometry relative="1" as="geometry"/>
                </mxCell>
                <mxCell id="114" style="edgeStyle=orthogonalEdgeStyle;html=1;exitX=0;exitY=0.57;exitDx=0;exitDy=0;exitPerimeter=0;entryX=0.25;entryY=0;entryDx=0;entryDy=0;rounded=0;curved=0;endArrow=none;endFill=0;" edge="1" parent="1" source="45" target="3">
                    <mxGeometry relative="1" as="geometry">
                        <mxPoint x="370" y="480" as="targetPoint"/>
                        <Array as="points">
                            <mxPoint x="490" y="470"/>
                            <mxPoint x="384" y="470"/>
                        </Array>
                    </mxGeometry>
                </mxCell>
                <mxCell id="45" value="" style="verticalLabelPosition=bottom;shadow=0;dashed=0;align=center;html=1;verticalAlign=top;shape=mxgraph.electrical.opto_electronics.led_2;pointerEvents=1;" vertex="1" parent="1">
                    <mxGeometry x="490" y="390" width="100" height="70" as="geometry"/>
                </mxCell>
                <mxCell id="127" style="edgeStyle=none;html=1;exitX=1;exitY=0.5;exitDx=0;exitDy=0;exitPerimeter=0;endArrow=none;endFill=0;" edge="1" parent="1" source="50">
                    <mxGeometry relative="1" as="geometry">
                        <mxPoint x="699.9999999999998" y="430.1030927835052" as="targetPoint"/>
                    </mxGeometry>
                </mxCell>
                <mxCell id="50" value="" style="pointerEvents=1;verticalLabelPosition=bottom;shadow=0;dashed=0;align=center;html=1;verticalAlign=top;shape=mxgraph.electrical.resistors.resistor_1;" vertex="1" parent="1">
                    <mxGeometry x="590" y="420" width="100" height="20" as="geometry"/>
                </mxCell>
                <mxCell id="86" style="edgeStyle=orthogonalEdgeStyle;html=1;exitX=0;exitY=0.57;exitDx=0;exitDy=0;exitPerimeter=0;entryX=1;entryY=0.25;entryDx=0;entryDy=0;rounded=0;endArrow=none;endFill=0;" edge="1" parent="1" source="51" target="3">
                    <mxGeometry relative="1" as="geometry"/>
                </mxCell>
                <mxCell id="51" value="" style="verticalLabelPosition=bottom;shadow=0;dashed=0;align=center;html=1;verticalAlign=top;shape=mxgraph.electrical.opto_electronics.led_2;pointerEvents=1;" vertex="1" parent="1">
                    <mxGeometry x="490" y="460" width="100" height="70" as="geometry"/>
                </mxCell>
                <mxCell id="128" style="edgeStyle=none;html=1;exitX=1;exitY=0.5;exitDx=0;exitDy=0;exitPerimeter=0;endArrow=none;endFill=0;" edge="1" parent="1" source="52">
                    <mxGeometry relative="1" as="geometry">
                        <mxPoint x="699.9999999999998" y="500" as="targetPoint"/>
                    </mxGeometry>
                </mxCell>
                <mxCell id="52" value="" style="pointerEvents=1;verticalLabelPosition=bottom;shadow=0;dashed=0;align=center;html=1;verticalAlign=top;shape=mxgraph.electrical.resistors.resistor_1;" vertex="1" parent="1">
                    <mxGeometry x="590" y="490" width="100" height="20" as="geometry"/>
                </mxCell>
                <mxCell id="87" style="edgeStyle=orthogonalEdgeStyle;html=1;exitX=0;exitY=0.57;exitDx=0;exitDy=0;exitPerimeter=0;entryX=1;entryY=0.75;entryDx=0;entryDy=0;rounded=0;endArrow=none;endFill=0;" edge="1" parent="1" source="53" target="3">
                    <mxGeometry relative="1" as="geometry"/>
                </mxCell>
                <mxCell id="115" style="edgeStyle=orthogonalEdgeStyle;html=1;exitX=0;exitY=0.57;exitDx=0;exitDy=0;exitPerimeter=0;entryX=0.25;entryY=0;entryDx=0;entryDy=0;endArrow=none;endFill=0;rounded=0;curved=0;" edge="1" parent="1" source="53" target="4">
                    <mxGeometry relative="1" as="geometry">
                        <Array as="points">
                            <mxPoint x="490" y="600"/>
                            <mxPoint x="380" y="600"/>
                        </Array>
                    </mxGeometry>
                </mxCell>
                <mxCell id="53" value="" style="verticalLabelPosition=bottom;shadow=0;dashed=0;align=center;html=1;verticalAlign=top;shape=mxgraph.electrical.opto_electronics.led_2;pointerEvents=1;" vertex="1" parent="1">
                    <mxGeometry x="490" y="522" width="100" height="70" as="geometry"/>
                </mxCell>
                <mxCell id="129" style="edgeStyle=none;html=1;exitX=1;exitY=0.5;exitDx=0;exitDy=0;exitPerimeter=0;endArrow=none;endFill=0;" edge="1" parent="1" source="54">
                    <mxGeometry relative="1" as="geometry">
                        <mxPoint x="699.9999999999998" y="562.0618556701031" as="targetPoint"/>
                    </mxGeometry>
                </mxCell>
                <mxCell id="54" value="" style="pointerEvents=1;verticalLabelPosition=bottom;shadow=0;dashed=0;align=center;html=1;verticalAlign=top;shape=mxgraph.electrical.resistors.resistor_1;" vertex="1" parent="1">
                    <mxGeometry x="590" y="552" width="100" height="20" as="geometry"/>
                </mxCell>
                <mxCell id="81" style="edgeStyle=orthogonalEdgeStyle;html=1;exitX=0;exitY=0.57;exitDx=0;exitDy=0;exitPerimeter=0;entryX=1;entryY=0.25;entryDx=0;entryDy=0;rounded=0;endArrow=none;endFill=0;" edge="1" parent="1" source="67" target="4">
                    <mxGeometry relative="1" as="geometry"/>
                </mxCell>
                <mxCell id="67" value="" style="verticalLabelPosition=bottom;shadow=0;dashed=0;align=center;html=1;verticalAlign=top;shape=mxgraph.electrical.opto_electronics.led_2;pointerEvents=1;" vertex="1" parent="1">
                    <mxGeometry x="490" y="590" width="100" height="70" as="geometry"/>
                </mxCell>
                <mxCell id="130" style="edgeStyle=none;html=1;exitX=1;exitY=0.5;exitDx=0;exitDy=0;exitPerimeter=0;endArrow=none;endFill=0;" edge="1" parent="1" source="68">
                    <mxGeometry relative="1" as="geometry">
                        <mxPoint x="699.9999999999998" y="629.8969072164949" as="targetPoint"/>
                    </mxGeometry>
                </mxCell>
                <mxCell id="68" value="" style="pointerEvents=1;verticalLabelPosition=bottom;shadow=0;dashed=0;align=center;html=1;verticalAlign=top;shape=mxgraph.electrical.resistors.resistor_1;" vertex="1" parent="1">
                    <mxGeometry x="590" y="620" width="100" height="20" as="geometry"/>
                </mxCell>
                <mxCell id="79" style="edgeStyle=orthogonalEdgeStyle;html=1;exitX=0;exitY=0.57;exitDx=0;exitDy=0;exitPerimeter=0;entryX=1;entryY=0.75;entryDx=0;entryDy=0;rounded=0;endArrow=none;endFill=0;" edge="1" parent="1" source="69" target="4">
                    <mxGeometry relative="1" as="geometry"/>
                </mxCell>
                <mxCell id="116" style="edgeStyle=orthogonalEdgeStyle;html=1;exitX=0;exitY=0.57;exitDx=0;exitDy=0;exitPerimeter=0;entryX=0.25;entryY=0;entryDx=0;entryDy=0;rounded=0;curved=0;endArrow=none;endFill=0;" edge="1" parent="1" source="69" target="5">
                    <mxGeometry relative="1" as="geometry">
                        <Array as="points">
                            <mxPoint x="490" y="730"/>
                            <mxPoint x="384" y="730"/>
                        </Array>
                    </mxGeometry>
                </mxCell>
                <mxCell id="69" value="" style="verticalLabelPosition=bottom;shadow=0;dashed=0;align=center;html=1;verticalAlign=top;shape=mxgraph.electrical.opto_electronics.led_2;pointerEvents=1;" vertex="1" parent="1">
                    <mxGeometry x="490" y="652" width="100" height="70" as="geometry"/>
                </mxCell>
                <mxCell id="131" style="edgeStyle=none;html=1;exitX=1;exitY=0.5;exitDx=0;exitDy=0;exitPerimeter=0;endArrow=none;endFill=0;" edge="1" parent="1" source="70">
                    <mxGeometry relative="1" as="geometry">
                        <mxPoint x="699.9999999999998" y="691.958762886598" as="targetPoint"/>
                    </mxGeometry>
                </mxCell>
                <mxCell id="70" value="" style="pointerEvents=1;verticalLabelPosition=bottom;shadow=0;dashed=0;align=center;html=1;verticalAlign=top;shape=mxgraph.electrical.resistors.resistor_1;" vertex="1" parent="1">
                    <mxGeometry x="590" y="682" width="100" height="20" as="geometry"/>
                </mxCell>
                <mxCell id="77" style="edgeStyle=orthogonalEdgeStyle;html=1;exitX=0;exitY=0.57;exitDx=0;exitDy=0;exitPerimeter=0;entryX=1;entryY=0.25;entryDx=0;entryDy=0;rounded=0;endArrow=none;endFill=0;" edge="1" parent="1" source="71" target="5">
                    <mxGeometry relative="1" as="geometry"/>
                </mxCell>
                <mxCell id="71" value="" style="verticalLabelPosition=bottom;shadow=0;dashed=0;align=center;html=1;verticalAlign=top;shape=mxgraph.electrical.opto_electronics.led_2;pointerEvents=1;" vertex="1" parent="1">
                    <mxGeometry x="490" y="720" width="100" height="70" as="geometry"/>
                </mxCell>
                <mxCell id="132" style="edgeStyle=none;html=1;exitX=1;exitY=0.5;exitDx=0;exitDy=0;exitPerimeter=0;endArrow=none;endFill=0;" edge="1" parent="1" source="72">
                    <mxGeometry relative="1" as="geometry">
                        <mxPoint x="699.9999999999998" y="760.0000000000001" as="targetPoint"/>
                    </mxGeometry>
                </mxCell>
                <mxCell id="72" value="" style="pointerEvents=1;verticalLabelPosition=bottom;shadow=0;dashed=0;align=center;html=1;verticalAlign=top;shape=mxgraph.electrical.resistors.resistor_1;" vertex="1" parent="1">
                    <mxGeometry x="590" y="750" width="100" height="20" as="geometry"/>
                </mxCell>
                <mxCell id="78" style="edgeStyle=orthogonalEdgeStyle;html=1;exitX=0;exitY=0.57;exitDx=0;exitDy=0;exitPerimeter=0;entryX=1;entryY=0.75;entryDx=0;entryDy=0;rounded=0;endArrow=none;endFill=0;" edge="1" parent="1" source="73" target="5">
                    <mxGeometry relative="1" as="geometry"/>
                </mxCell>
                <mxCell id="73" value="" style="verticalLabelPosition=bottom;shadow=0;dashed=0;align=center;html=1;verticalAlign=top;shape=mxgraph.electrical.opto_electronics.led_2;pointerEvents=1;" vertex="1" parent="1">
                    <mxGeometry x="490" y="782" width="100" height="70" as="geometry"/>
                </mxCell>
                <mxCell id="133" style="edgeStyle=none;html=1;exitX=1;exitY=0.5;exitDx=0;exitDy=0;exitPerimeter=0;endArrow=none;endFill=0;" edge="1" parent="1" source="74">
                    <mxGeometry relative="1" as="geometry">
                        <mxPoint x="699.9999999999998" y="822.0618556701031" as="targetPoint"/>
                    </mxGeometry>
                </mxCell>
                <mxCell id="74" value="" style="pointerEvents=1;verticalLabelPosition=bottom;shadow=0;dashed=0;align=center;html=1;verticalAlign=top;shape=mxgraph.electrical.resistors.resistor_1;" vertex="1" parent="1">
                    <mxGeometry x="590" y="812" width="100" height="20" as="geometry"/>
                </mxCell>
                <mxCell id="89" style="edgeStyle=orthogonalEdgeStyle;html=1;exitX=0;exitY=0.5;exitDx=0;exitDy=0;entryX=0;entryY=0.25;entryDx=0;entryDy=0;entryPerimeter=0;endArrow=none;endFill=0;strokeColor=default;rounded=0;curved=0;" edge="1" parent="1" source="10" target="6">
                    <mxGeometry relative="1" as="geometry"/>
                </mxCell>
                <mxCell id="94" value="" style="shape=ellipse;fillColor=#000000;strokeColor=none;html=1;sketch=0;" vertex="1" parent="1">
                    <mxGeometry x="222" y="660" width="10" height="10" as="geometry"/>
                </mxCell>
                <mxCell id="95" style="edgeStyle=orthogonalEdgeStyle;html=1;exitX=0.5;exitY=1;exitDx=0;exitDy=0;entryX=0;entryY=0.25;entryDx=0;entryDy=0;entryPerimeter=0;rounded=0;curved=0;endArrow=none;endFill=0;" edge="1" parent="1" source="94" target="9">
                    <mxGeometry relative="1" as="geometry"/>
                </mxCell>
                <mxCell id="99" value="220&amp;nbsp;Ω" style="text;html=1;align=center;verticalAlign=middle;resizable=0;points=[];autosize=1;strokeColor=none;fillColor=none;" vertex="1" parent="1">
                    <mxGeometry x="610" y="353" width="60" height="30" as="geometry"/>
                </mxCell>
                <mxCell id="100" value="220&amp;nbsp;Ω" style="text;html=1;align=center;verticalAlign=middle;resizable=0;points=[];autosize=1;strokeColor=none;fillColor=none;" vertex="1" parent="1">
                    <mxGeometry x="610" y="415" width="60" height="30" as="geometry"/>
                </mxCell>
                <mxCell id="101" value="220&amp;nbsp;Ω" style="text;html=1;align=center;verticalAlign=middle;resizable=0;points=[];autosize=1;strokeColor=none;fillColor=none;" vertex="1" parent="1">
                    <mxGeometry x="610" y="485" width="60" height="30" as="geometry"/>
                </mxCell>
                <mxCell id="102" value="220&amp;nbsp;Ω" style="text;html=1;align=center;verticalAlign=middle;resizable=0;points=[];autosize=1;strokeColor=none;fillColor=none;" vertex="1" parent="1">
                    <mxGeometry x="610" y="547" width="60" height="30" as="geometry"/>
                </mxCell>
                <mxCell id="103" value="220&amp;nbsp;Ω" style="text;html=1;align=center;verticalAlign=middle;resizable=0;points=[];autosize=1;strokeColor=none;fillColor=none;" vertex="1" parent="1">
                    <mxGeometry x="610" y="615" width="60" height="30" as="geometry"/>
                </mxCell>
                <mxCell id="104" value="220&amp;nbsp;Ω" style="text;html=1;align=center;verticalAlign=middle;resizable=0;points=[];autosize=1;strokeColor=none;fillColor=none;" vertex="1" parent="1">
                    <mxGeometry x="610" y="677" width="60" height="30" as="geometry"/>
                </mxCell>
                <mxCell id="105" value="220&amp;nbsp;Ω" style="text;html=1;align=center;verticalAlign=middle;resizable=0;points=[];autosize=1;strokeColor=none;fillColor=none;" vertex="1" parent="1">
                    <mxGeometry x="610" y="745" width="60" height="30" as="geometry"/>
                </mxCell>
                <mxCell id="106" value="220&amp;nbsp;Ω" style="text;html=1;align=center;verticalAlign=middle;resizable=0;points=[];autosize=1;strokeColor=none;fillColor=none;" vertex="1" parent="1">
                    <mxGeometry x="610" y="807" width="60" height="30" as="geometry"/>
                </mxCell>
                <mxCell id="108" value="" style="shape=ellipse;fillColor=#000000;strokeColor=none;html=1;sketch=0;" vertex="1" parent="1">
                    <mxGeometry x="222" y="298" width="10" height="10" as="geometry"/>
                </mxCell>
                <mxCell id="109" value="Cin" style="text;html=1;align=center;verticalAlign=middle;resizable=0;points=[];autosize=1;strokeColor=none;fillColor=none;" vertex="1" parent="1">
                    <mxGeometry x="374" y="348" width="40" height="30" as="geometry"/>
                </mxCell>
                <mxCell id="111" value="Cin" style="text;html=1;align=center;verticalAlign=middle;resizable=0;points=[];autosize=1;strokeColor=none;fillColor=none;" vertex="1" parent="1">
                    <mxGeometry x="380" y="480" width="40" height="30" as="geometry"/>
                </mxCell>
                <mxCell id="112" value="Cin" style="text;html=1;align=center;verticalAlign=middle;resizable=0;points=[];autosize=1;strokeColor=none;fillColor=none;" vertex="1" parent="1">
                    <mxGeometry x="374" y="610" width="40" height="30" as="geometry"/>
                </mxCell>
                <mxCell id="113" value="Cin" style="text;html=1;align=center;verticalAlign=middle;resizable=0;points=[];autosize=1;strokeColor=none;fillColor=none;" vertex="1" parent="1">
                    <mxGeometry x="380" y="740" width="40" height="30" as="geometry"/>
                </mxCell>
                <mxCell id="117" value="" style="shape=ellipse;fillColor=#000000;strokeColor=none;html=1;sketch=0;" vertex="1" parent="1">
                    <mxGeometry x="485" y="425" width="10" height="10" as="geometry"/>
                </mxCell>
                <mxCell id="118" value="" style="shape=ellipse;fillColor=#000000;strokeColor=none;html=1;sketch=0;" vertex="1" parent="1">
                    <mxGeometry x="486" y="556" width="10" height="10" as="geometry"/>
                </mxCell>
                <mxCell id="119" value="" style="shape=ellipse;fillColor=#000000;strokeColor=none;html=1;sketch=0;" vertex="1" parent="1">
                    <mxGeometry x="485" y="687" width="10" height="10" as="geometry"/>
                </mxCell>
                <mxCell id="122" style="edgeStyle=orthogonalEdgeStyle;html=1;exitX=1;exitY=0.5;exitDx=0;exitDy=0;entryX=1;entryY=0.88;entryDx=0;entryDy=0;endArrow=none;endFill=0;rounded=0;curved=0;" edge="1" parent="1" source="121" target="10">
                    <mxGeometry relative="1" as="geometry"/>
                </mxCell>
                <mxCell id="121" value="" style="pointerEvents=1;verticalLabelPosition=bottom;shadow=0;dashed=0;align=center;html=1;verticalAlign=top;shape=mxgraph.electrical.miscellaneous.batteryStack;rotation=-90;" vertex="1" parent="1">
                    <mxGeometry x="-10" y="860" width="100" height="60" as="geometry"/>
                </mxCell>
                <mxCell id="123" value="+" style="text;html=1;align=center;verticalAlign=middle;resizable=0;points=[];autosize=1;strokeColor=none;fillColor=none;" vertex="1" parent="1">
                    <mxGeometry y="832" width="30" height="30" as="geometry"/>
                </mxCell>
                <mxCell id="124" value="-" style="text;html=1;align=center;verticalAlign=middle;resizable=0;points=[];autosize=1;strokeColor=none;fillColor=none;" vertex="1" parent="1">
                    <mxGeometry y="918" width="30" height="30" as="geometry"/>
                </mxCell>
                <mxCell id="125" value="+5 V" style="text;html=1;align=center;verticalAlign=middle;resizable=0;points=[];autosize=1;strokeColor=none;fillColor=none;" vertex="1" parent="1">
                    <mxGeometry x="-30" y="875" width="50" height="30" as="geometry"/>
                </mxCell>
                <mxCell id="134" value="" style="shape=ellipse;fillColor=#000000;strokeColor=none;html=1;sketch=0;" vertex="1" parent="1">
                    <mxGeometry x="695" y="425" width="10" height="10" as="geometry"/>
                </mxCell>
                <mxCell id="135" value="" style="shape=ellipse;fillColor=#000000;strokeColor=none;html=1;sketch=0;" vertex="1" parent="1">
                    <mxGeometry x="695" y="495" width="10" height="10" as="geometry"/>
                </mxCell>
                <mxCell id="136" value="" style="shape=ellipse;fillColor=#000000;strokeColor=none;html=1;sketch=0;" vertex="1" parent="1">
                    <mxGeometry x="695" y="557" width="10" height="10" as="geometry"/>
                </mxCell>
                <mxCell id="137" value="" style="shape=ellipse;fillColor=#000000;strokeColor=none;html=1;sketch=0;" vertex="1" parent="1">
                    <mxGeometry x="695" y="625" width="10" height="10" as="geometry"/>
                </mxCell>
                <mxCell id="138" value="" style="shape=ellipse;fillColor=#000000;strokeColor=none;html=1;sketch=0;" vertex="1" parent="1">
                    <mxGeometry x="695" y="687" width="10" height="10" as="geometry"/>
                </mxCell>
                <mxCell id="139" value="" style="shape=ellipse;fillColor=#000000;strokeColor=none;html=1;sketch=0;" vertex="1" parent="1">
                    <mxGeometry x="695" y="755" width="10" height="10" as="geometry"/>
                </mxCell>
                <mxCell id="140" value="" style="shape=ellipse;fillColor=#000000;strokeColor=none;html=1;sketch=0;" vertex="1" parent="1">
                    <mxGeometry x="695" y="817" width="10" height="10" as="geometry"/>
                </mxCell>
                <mxCell id="150" value="" style="shape=ellipse;fillColor=#000000;strokeColor=none;html=1;sketch=0;" vertex="1" parent="1">
                    <mxGeometry x="125" y="945" width="10" height="10" as="geometry"/>
                </mxCell>
                <mxCell id="151" value="" style="shape=ellipse;fillColor=#000000;strokeColor=none;html=1;sketch=0;" vertex="1" parent="1">
                    <mxGeometry x="125" y="390" width="10" height="10" as="geometry"/>
                </mxCell>
                <mxCell id="152" value="" style="shape=ellipse;fillColor=#000000;strokeColor=none;html=1;sketch=0;" vertex="1" parent="1">
                    <mxGeometry x="125" y="441" width="10" height="10" as="geometry"/>
                </mxCell>
                <mxCell id="153" value="" style="shape=ellipse;fillColor=#000000;strokeColor=none;html=1;sketch=0;" vertex="1" parent="1">
                    <mxGeometry x="125" y="522" width="10" height="10" as="geometry"/>
                </mxCell>
                <mxCell id="154" value="" style="shape=ellipse;fillColor=#000000;strokeColor=none;html=1;sketch=0;" vertex="1" parent="1">
                    <mxGeometry x="125" y="572" width="10" height="10" as="geometry"/>
                </mxCell>
                <mxCell id="155" value="" style="shape=ellipse;fillColor=#000000;strokeColor=none;html=1;sketch=0;" vertex="1" parent="1">
                    <mxGeometry x="125" y="652" width="10" height="10" as="geometry"/>
                </mxCell>
                <mxCell id="156" value="" style="shape=ellipse;fillColor=#000000;strokeColor=none;html=1;sketch=0;" vertex="1" parent="1">
                    <mxGeometry x="125" y="700" width="10" height="10" as="geometry"/>
                </mxCell>
                <mxCell id="157" value="" style="shape=ellipse;fillColor=#000000;strokeColor=none;html=1;sketch=0;" vertex="1" parent="1">
                    <mxGeometry x="125" y="782" width="10" height="10" as="geometry"/>
                </mxCell>
                <mxCell id="158" value="" style="shape=ellipse;fillColor=#000000;strokeColor=none;html=1;sketch=0;" vertex="1" parent="1">
                    <mxGeometry x="125" y="832" width="10" height="10" as="geometry"/>
                </mxCell>
                <mxCell id="159" value="" style="shape=ellipse;fillColor=#000000;strokeColor=none;html=1;sketch=0;" vertex="1" parent="1">
                    <mxGeometry x="35" y="370" width="10" height="10" as="geometry"/>
                </mxCell>
                <mxCell id="160" value="" style="shape=ellipse;fillColor=#000000;strokeColor=none;html=1;sketch=0;" vertex="1" parent="1">
                    <mxGeometry x="35" y="421" width="10" height="10" as="geometry"/>
                </mxCell>
                <mxCell id="161" value="" style="shape=ellipse;fillColor=#000000;strokeColor=none;html=1;sketch=0;" vertex="1" parent="1">
                    <mxGeometry x="35" y="502" width="10" height="10" as="geometry"/>
                </mxCell>
                <mxCell id="162" value="" style="shape=ellipse;fillColor=#000000;strokeColor=none;html=1;sketch=0;" vertex="1" parent="1">
                    <mxGeometry x="35" y="552" width="10" height="10" as="geometry"/>
                </mxCell>
                <mxCell id="163" value="" style="shape=ellipse;fillColor=#000000;strokeColor=none;html=1;sketch=0;" vertex="1" parent="1">
                    <mxGeometry x="35" y="632" width="10" height="10" as="geometry"/>
                </mxCell>
                <mxCell id="164" value="" style="shape=ellipse;fillColor=#000000;strokeColor=none;html=1;sketch=0;" vertex="1" parent="1">
                    <mxGeometry x="35" y="680" width="10" height="10" as="geometry"/>
                </mxCell>
                <mxCell id="165" value="" style="shape=ellipse;fillColor=#000000;strokeColor=none;html=1;sketch=0;" vertex="1" parent="1">
                    <mxGeometry x="35" y="762" width="10" height="10" as="geometry"/>
                </mxCell>
                <mxCell id="166" value="" style="shape=ellipse;fillColor=#000000;strokeColor=none;html=1;sketch=0;" vertex="1" parent="1">
                    <mxGeometry x="35" y="812" width="10" height="10" as="geometry"/>
                </mxCell>
                <mxCell id="167" value="Sum1" style="text;html=1;align=center;verticalAlign=middle;resizable=0;points=[];autosize=1;strokeColor=none;fillColor=none;" vertex="1" parent="1">
                    <mxGeometry x="469" y="340" width="60" height="30" as="geometry"/>
                </mxCell>
                <mxCell id="168" value="Sum2" style="text;html=1;align=center;verticalAlign=middle;resizable=0;points=[];autosize=1;strokeColor=none;fillColor=none;" vertex="1" parent="1">
                    <mxGeometry x="465" y="475" width="60" height="30" as="geometry"/>
                </mxCell>
                <mxCell id="169" value="Sum3" style="text;html=1;align=center;verticalAlign=middle;resizable=0;points=[];autosize=1;strokeColor=none;fillColor=none;" vertex="1" parent="1">
                    <mxGeometry x="465" y="605" width="60" height="30" as="geometry"/>
                </mxCell>
                <mxCell id="170" value="Sum4" style="text;html=1;align=center;verticalAlign=middle;resizable=0;points=[];autosize=1;strokeColor=none;fillColor=none;" vertex="1" parent="1">
                    <mxGeometry x="465" y="735" width="60" height="30" as="geometry"/>
                </mxCell>
                <mxCell id="171" value="Cout1" style="text;html=1;align=center;verticalAlign=middle;resizable=0;points=[];autosize=1;strokeColor=none;fillColor=none;" vertex="1" parent="1">
                    <mxGeometry x="469" y="401" width="60" height="30" as="geometry"/>
                </mxCell>
                <mxCell id="172" value="Cout2" style="text;html=1;align=center;verticalAlign=middle;resizable=0;points=[];autosize=1;strokeColor=none;fillColor=none;" vertex="1" parent="1">
                    <mxGeometry x="469" y="530" width="60" height="30" as="geometry"/>
                </mxCell>
                <mxCell id="173" value="Cout3" style="text;html=1;align=center;verticalAlign=middle;resizable=0;points=[];autosize=1;strokeColor=none;fillColor=none;" vertex="1" parent="1">
                    <mxGeometry x="469" y="662" width="60" height="30" as="geometry"/>
                </mxCell>
                <mxCell id="174" value="Cout4" style="text;html=1;align=center;verticalAlign=middle;resizable=0;points=[];autosize=1;strokeColor=none;fillColor=none;" vertex="1" parent="1">
                    <mxGeometry x="470" y="797" width="60" height="30" as="geometry"/>
                </mxCell>
                <mxCell id="175" value="Created by Ihor Chernyshev&lt;div&gt;TEJ3M Unit 4-21&lt;/div&gt;&lt;div&gt;Chips&lt;/div&gt;" style="text;html=1;align=left;verticalAlign=middle;resizable=0;points=[];autosize=1;strokeColor=none;fillColor=none;" vertex="1" parent="1">
                    <mxGeometry x="40" y="210" width="180" height="60" as="geometry"/>
                </mxCell>
                <mxCell id="176" value="Input A1" style="text;html=1;align=center;verticalAlign=middle;resizable=0;points=[];autosize=1;strokeColor=none;fillColor=none;" vertex="1" parent="1">
                    <mxGeometry x="130" y="348" width="70" height="30" as="geometry"/>
                </mxCell>
                <mxCell id="177" value="Input A2" style="text;html=1;align=center;verticalAlign=middle;resizable=0;points=[];autosize=1;strokeColor=none;fillColor=none;" vertex="1" parent="1">
                    <mxGeometry x="125" y="480" width="70" height="30" as="geometry"/>
                </mxCell>
                <mxCell id="178" value="Input A3" style="text;html=1;align=center;verticalAlign=middle;resizable=0;points=[];autosize=1;strokeColor=none;fillColor=none;" vertex="1" parent="1">
                    <mxGeometry x="125" y="610" width="70" height="30" as="geometry"/>
                </mxCell>
                <mxCell id="179" value="Input A4" style="text;html=1;align=center;verticalAlign=middle;resizable=0;points=[];autosize=1;strokeColor=none;fillColor=none;" vertex="1" parent="1">
                    <mxGeometry x="132.5" y="740" width="70" height="30" as="geometry"/>
                </mxCell>
                <mxCell id="180" value="Input B1" style="text;html=1;align=center;verticalAlign=middle;resizable=0;points=[];autosize=1;strokeColor=none;fillColor=none;" vertex="1" parent="1">
                    <mxGeometry x="132.5" y="445" width="70" height="30" as="geometry"/>
                </mxCell>
                <mxCell id="181" value="Input B2" style="text;html=1;align=center;verticalAlign=middle;resizable=0;points=[];autosize=1;strokeColor=none;fillColor=none;" vertex="1" parent="1">
                    <mxGeometry x="132.5" y="575" width="70" height="30" as="geometry"/>
                </mxCell>
                <mxCell id="182" value="Input B3" style="text;html=1;align=center;verticalAlign=middle;resizable=0;points=[];autosize=1;strokeColor=none;fillColor=none;" vertex="1" parent="1">
                    <mxGeometry x="132.5" y="702" width="70" height="30" as="geometry"/>
                </mxCell>
                <mxCell id="183" value="Input B4" style="text;html=1;align=center;verticalAlign=middle;resizable=0;points=[];autosize=1;strokeColor=none;fillColor=none;" vertex="1" parent="1">
                    <mxGeometry x="135" y="837" width="70" height="30" as="geometry"/>
                </mxCell>
            </root>
        </mxGraphModel>
    </diagram>
</mxfile>